<?xml version="1.0" encoding="UTF-8" standalone="no"?>
<!-- Created with Inkscape (http://www.inkscape.org/) -->

<svg
   xmlns:dc="http://purl.org/dc/elements/1.1/"
   xmlns:cc="http://creativecommons.org/ns#"
   xmlns:rdf="http://www.w3.org/1999/02/22-rdf-syntax-ns#"
   xmlns:svg="http://www.w3.org/2000/svg"
   xmlns="http://www.w3.org/2000/svg"
   xmlns:sodipodi="http://sodipodi.sourceforge.net/DTD/sodipodi-0.dtd"
   xmlns:inkscape="http://www.inkscape.org/namespaces/inkscape"
   width="55.027042mm"
   height="48.750854mm"
   viewBox="0 0 194.97771 172.73925"
   id="svg2"
   version="1.1"
   inkscape:version="0.92.2 5c3e80d, 2017-08-06"
   sodipodi:docname="logo_new.svg">
  <defs
     id="defs4" />
  <sodipodi:namedview
     id="base"
     pagecolor="#ffffff"
     bordercolor="#666666"
     borderopacity="1.0"
     inkscape:pageopacity="0.0"
     inkscape:pageshadow="2"
     inkscape:zoom="1"
     inkscape:cx="-9.3671175"
     inkscape:cy="-28.311586"
     inkscape:document-units="px"
     inkscape:current-layer="layer1"
     showgrid="false"
     inkscape:window-width="1680"
     inkscape:window-height="1002"
     inkscape:window-x="0"
     inkscape:window-y="22"
     inkscape:window-maximized="1">
    <inkscape:grid
       type="xygrid"
       id="grid3342"
       originx="-422.23437"
       originy="-404.55947" />
  </sodipodi:namedview>
  <metadata
     id="metadata7">
    <rdf:RDF>
      <cc:Work
         rdf:about="">
        <dc:format>image/svg+xml</dc:format>
        <dc:type
           rdf:resource="http://purl.org/dc/dcmitype/StillImage" />
        <dc:title></dc:title>
      </cc:Work>
    </rdf:RDF>
  </metadata>
  <g
     inkscape:label="Layer 1"
     inkscape:groupmode="layer"
     id="layer1"
     transform="translate(-422.23438,-475.06348)">
    <path
       style="fill:#f0951c;fill-opacity:1;stroke:none"
       d="m 497.23633,475.06641 a 27.5,27.5 0 0 0 -19.84766,8.05273 27.5,27.5 0 0 0 -0.34179,0.36524 l -0.0117,-0.0117 -54.80078,54.80078 38.89062,38.89062 54.80078,-54.80078 -0.0176,-0.0176 a 27.5,27.5 0 0 0 0.3711,-0.33593 27.5,27.5 0 0 0 0,-38.89063 27.5,27.5 0 0 0 -19.04297,-8.05273 z"
       id="rect4172"
       inkscape:connector-curvature="0" />
    <path
       style="fill:#29333d;fill-opacity:1;fill-rule:evenodd;stroke:none;stroke-width:0.99009901px;stroke-linecap:butt;stroke-linejoin:miter;stroke-opacity:1"
       d="m 567.94141,491.79492 a 50,49.90152 45 0 0 -36.03516,14.58985 50,49.90152 45 0 0 -1.95313,2.0957 l -68.75585,68.75586 70.5664,70.5664 69.33985,-69.33984 a 50,49.90152 45 0 0 1.51367,-1.36914 50,49.90152 45 0 0 -0.0703,-70.64063 50,49.90152 45 0 0 -34.60547,-14.6582 z m -0.34766,22.51758 a 27.5,27.5 0 0 1 19.04297,8.05078 27.5,27.5 0 0 1 0,38.89063 27.5,27.5 0 0 1 -0.3711,0.33593 l 0.0176,0.0176 -54.80078,54.80078 -38.89062,-38.89062 54.80078,-54.80078 0.0117,0.0117 a 27.5,27.5 0 0 1 0.34179,-0.36524 27.5,27.5 0 0 1 19.84766,-8.05078 z"
       id="rect4162"
       inkscape:connector-curvature="0" />
  </g>
</svg>
